<?xml version="1.0" standalone="no"?><!DOCTYPE svg PUBLIC "-//W3C//DTD SVG 1.1//EN" "http://www.w3.org/Graphics/SVG/1.1/DTD/svg11.dtd"><svg t="1549854275397" class="icon" style="" viewBox="0 0 1024 1024" version="1.1" xmlns="http://www.w3.org/2000/svg" p-id="32302" xmlns:xlink="http://www.w3.org/1999/xlink" ><defs><style type="text/css"></style></defs><path d="M679.538761 615.349833c-16.619516-4.456498-42.016953 23.685445-42.016953 23.685445-8.117888 8.117888-15.487739 21.817911-21.99699 36.363186-10.400884 23.242354-39.557948 31.860638-60.655452 17.602913-85.916788-58.06444-168.970366-141.340075-226.592738-227.297796-13.837146-20.641109-5.952572-48.862871 16.253172-60.016909 20.278859-10.18599 39.021735-20.033265 39.021735-20.033265l-0.152473-0.508583c13.866822-6.311753 21.666462-21.914102 17.600867-37.090756 0 0-116.005061-284.032962-149.172461-284.032962-103.732549 0-187.845249 84.1127-187.845249 187.845249 0 23.793916 4.590552 46.334281 12.730952 67.206658 87.034239 302.014498 324.763618 539.5341 626.778116 626.778116 20.871353 8.140401 43.621497 12.730952 67.415412 12.730952 103.731526 0 189.410907-79.103616 189.410907-182.836165C960.317609 775.745916 817.401642 670.753677 679.538761 615.349833z" p-id="32303"></path></svg>