<?xml version="1.0" standalone="no"?><!DOCTYPE svg PUBLIC "-//W3C//DTD SVG 1.1//EN" "http://www.w3.org/Graphics/SVG/1.1/DTD/svg11.dtd"><svg t="1522226476292" class="icon" style="" viewBox="0 0 1024 1024" version="1.1" xmlns="http://www.w3.org/2000/svg" p-id="2782" xmlns:xlink="http://www.w3.org/1999/xlink" ><defs><style type="text/css"></style></defs><path d="M958.171429 292.571429c-14.628571-29.257143-29.257143-51.2-51.2-73.142858-7.314286-7.314286-21.942857-14.628571-36.571429-14.628571s-21.942857 14.628571-29.257143 21.942857c-7.314286 14.628571 0 29.257143 7.314286 36.571429 65.828571 73.142857 95.085714 168.228571 95.085714 263.314285 0 234.057143-197.485714 416.914286-431.542857 416.914286-241.371429 0-431.542857-190.171429-431.542857-416.914286 0-102.4 36.571429-197.485714 102.4-270.628571 7.314286-14.628571 14.628571-29.257143 7.314286-36.571429s-14.628571-21.942857-29.257143-29.257142c-14.628571 0-29.257143 0-36.571429 14.628571C43.885714 292.571429 0 409.6 0 526.628571 0 804.571429 226.742857 1024 512 1024s512-219.428571 512-497.371429c0-80.457143-21.942857-160.914286-65.828571-234.057142z" fill="#8C8C8C" p-id="2783"></path><path d="M577.828571 519.314286c0 29.257143-29.257143 51.2-65.828571 51.2s-65.828571-21.942857-65.828571-51.2V51.2c0-29.257143 29.257143-51.2 65.828571-51.2s65.828571 21.942857 65.828571 51.2v468.114286z" fill="#8C8C8C" p-id="2784"></path></svg>