<?xml version="1.0" standalone="no"?><!DOCTYPE svg PUBLIC "-//W3C//DTD SVG 1.1//EN" "http://www.w3.org/Graphics/SVG/1.1/DTD/svg11.dtd"><svg t="1549863822412" class="icon" style="" viewBox="0 0 1024 1024" version="1.1" xmlns="http://www.w3.org/2000/svg" p-id="1375" xmlns:xlink="http://www.w3.org/1999/xlink" width="" height=""><defs><style type="text/css"></style></defs><path d="M398.2 354H202c-5.5 0-10 4.5-10 10s4.5 10 10 10h196.2c5.5 0 10-4.5 10-10s-4.5-10-10-10zM398.2 219H202c-5.5 0-10 4.5-10 10s4.5 10 10 10h196.2c5.5 0 10-4.5 10-10s-4.5-10-10-10zM398.2 286.5H202c-5.5 0-10 4.5-10 10s4.5 10 10 10h196.2c5.5 0 10-4.5 10-10s-4.5-10-10-10z" fill="" p-id="1376"></path><path d="M897.9 193.6V115c0-9.1-7.4-16.5-16.5-16.5h-65.3l0.1-24c0-2.7-1-5.2-2.9-7.1s-4.4-2.9-7.1-2.9h-72.9c-5.5 0-10 4.5-10 10v24H142.4c-9.1 0-16.5 7.4-16.5 16.5v78.6c-35.2 6.1-62 36.8-62 73.7v568.2c0 41.2 33.6 74.8 74.8 74.8h298.2l13.9 38.6c2.4 6.6 8.6 10.9 15.5 10.9h88.9c7 0 13.2-4.4 15.5-10.9l13.9-38.6h300.5c41.2 0 74.8-33.6 74.8-74.8V267.3c0-36.9-26.9-67.6-62-73.7zM743.3 84.5h52.8l-0.5 176.7-21.1-14.2c-1.7-1.1-3.6-1.7-5.6-1.7s-3.9 0.6-5.6 1.7l-20 13.7V84.5z m-214.9 47h194.9v148.1c0 3.7 2 7.1 5.3 8.8 3.3 1.7 7.2 1.5 10.3-0.6l30.1-20.5 31 20.9c1.7 1.1 3.6 1.7 5.6 1.7 1.6 0 3.2-0.4 4.7-1.2 3.3-1.7 5.3-5.1 5.3-8.8l0.4-148.5h48.9v632.1H528.4v-632z m-369.5 0h336.5v632.1H158.9V131.5z m768 704c0 23-18.7 41.8-41.8 41.8H572.9c-7 0-13.2 4.4-15.5 10.9l-13.9 38.6h-65.7L464 888.2c-2.4-6.6-8.6-10.9-15.5-10.9H138.7c-23 0-41.8-18.7-41.8-41.8V267.3c0-18.6 12.2-34.4 29-39.8v552.6c0 9.1 7.4 16.5 16.5 16.5h739c9.1 0 16.5-7.4 16.5-16.5V227.5c16.8 5.4 29 21.2 29 39.8v568.2z" fill="" p-id="1377"></path></svg>