<?xml version="1.0" standalone="no"?><!DOCTYPE svg PUBLIC "-//W3C//DTD SVG 1.1//EN" "http://www.w3.org/Graphics/SVG/1.1/DTD/svg11.dtd"><svg t="1549854222256" class="icon" style="" viewBox="0 0 1024 1024" version="1.1" xmlns="http://www.w3.org/2000/svg" p-id="31397" xmlns:xlink="http://www.w3.org/1999/xlink" ><defs><style type="text/css"></style></defs><path d="M1023.54944 629.7472c0-144.83328-144.93056-262.90816-307.7184-262.90816-172.36096 0-308.12032 118.07488-308.12032 262.90816 0 145.09184 135.75936 262.90432 308.12032 262.90432 36.07808 0 72.46848-9.1072 108.70528-18.1952l99.37152 54.42944-27.24992-90.53696C969.37728 783.8016 1023.54944 711.456 1023.54944 629.7472zM615.936 584.39424c-18.03776 0-36.23936-17.9008-36.23936-36.22656 0-18.0672 18.2016-36.23552 36.23936-36.23552 27.3984 0 45.34656 18.16704 45.34656 36.23552C661.28256 566.49216 643.3344 584.39424 615.936 584.39424zM815.20128 584.39424c-17.91232 0-35.98208-17.9008-35.98208-36.22656 0-18.0672 18.06976-36.23552 35.98208-36.23552 27.15392 0 45.34656 18.16704 45.34656 36.23552C860.54784 566.49216 842.3552 584.39424 815.20128 584.39424zM692.91136 347.40224c11.74272 0 23.35872 0.84224 34.8864 2.12096C696.45056 203.56352 540.40192 95.11552 362.26944 95.11552 163.12448 95.11552 0 230.83392 0 403.20128c0 99.52896 54.26944 181.19296 144.96512 244.58624l-36.23168 108.97664 126.6432-63.49952c45.31584 8.95488 81.67296 18.19264 126.89408 18.19264 11.37024 0 22.64064-0.57216 33.824-1.44512-7.07712-24.2048-11.18208-49.57184-11.18208-75.91424C384.91136 475.83232 520.8256 347.40224 692.91136 347.40224zM498.11968 249.16352c27.28064 0 45.3504 17.93024 45.3504 45.18144 0 27.1808-18.06976 45.35552-45.3504 45.35552-27.1488 0-54.39744-18.17344-54.39744-45.35552C443.72224 267.09376 470.97088 249.16352 498.11968 249.16352zM244.58368 339.70048c-27.15264 0-54.55616-18.17344-54.55616-45.35552 0-27.2512 27.40352-45.18144 54.55616-45.18144 27.15008 0 45.22112 17.93024 45.22112 45.18144C289.8048 321.52576 271.73376 339.70048 244.58368 339.70048z" p-id="31398"></path></svg>